#!OML:ASF F:\VICON\USERDATA\INSTALL\rory3\rory3.ASF
:FULLY-SPECIFIED
:DEGREES
97
root -0.0620145 17.3913 25.8556 2.23316 -2.50936 0.935793
lowerback 15.5532 -1.9988 -4.51782
upperback 1.99783 -3.50228 -1.43704
thorax -6.40282 -1.61277 1.74711
lowerneck -7.53572 2.33801 -0.549466
upperneck -7.89434 3.19608 1.19421
head -1.222 1.59798 0.491338
rclavicle 2.127e-014 -3.89618e-014
rhumerus -51.6621 8.2112 -86.873
rradius 90.9755
rwrist -4.34041
rhand -38.4232 35.8918
rfingers 7.12502
rthumb -11.4474 6.22432
lclavicle 2.127e-014 -3.89618e-014
lhumerus -14.6843 -14.488 84.5309
lradius 115.186
lwrist 30.2951
lhand -34.5186 5.58073
lfingers 7.12502
lthumb -7.68017 35.4213
rfemur -37.77 -1.47148 19.8536
rtibia 104.749
rfoot 11.7765 -9.25077
rtoes 11.5164
lfemur 1.12215 -1.14357 -26.7452
ltibia 34.8968
lfoot -15.0357 -1.14625
ltoes -23.0187
98
root -0.062601 17.4522 26.3649 2.49428 -1.82456 2.05816
lowerback 15.3819 -2.47736 -5.40402
upperback 1.73009 -4.3001 -1.67421
thorax -6.5023 -1.97406 2.14727
lowerneck -7.42882 2.46963 -0.31826
upperneck -7.68633 3.34109 0.918824
head -1.16593 1.66611 0.370007
rclavicle -3.10104e-014 1.66979e-014
rhumerus -52.5152 7.95831 -86.8412
rradius 91.3035
rwrist -4.31166
rhand -38.3686 35.7468
rfingers 7.12502
rthumb -11.3948 6.07637
lclavicle -3.10104e-014 1.66979e-014
lhumerus -14.512 -14.8659 84.553
lradius 115.625
lwrist 29.2397
lhand -34.2881 6.73748
lfingers 7.12502
lthumb -7.45761 36.586
rfemur -39.4091 -1.9417 18.577
rtibia 102.734
rfoot 9.96794 -7.84609
rtoes 8.80083
lfemur 3.3554 -1.47004 -27.8563
ltibia 33.1085
lfoot -12.7158 -1.88795
ltoes -24.9467
99
root -0.0618587 17.5177 26.871 2.84108 -2.21585 2.17589
lowerback 15.2528 -2.6741 -5.5095
upperback 1.39404 -4.58066 -1.58944
thorax -6.75667 -2.0929 2.35411
lowerneck -7.22587 2.68049 -0.313861
upperneck -7.57958 3.60807 0.642283
head -1.16164 1.80073 0.285264
rclavicle -2.36554e-014 1.74931e-014
rhumerus -53.4797 7.93424 -86.6975
rradius 91.8042
rwrist -4.50753
rhand -38.1545 35.629
rfingers 7.12502
rthumb -11.1883 5.94729
lclavicle -2.36554e-014 1.74931e-014
lhumerus -14.4897 -14.6984 84.5067
lradius 115.711
lwrist 27.6865
lhand -33.664 4.94755
lfingers 7.12502
lthumb -6.85527 34.8166
rfemur -41.4205 -1.07643 18.5469
rtibia 100.269
rfoot 8.81073 -6.75296
rtoes 6.26581
lfemur 5.37938 -1.11497 -27.9653
ltibia 31.1956
lfoot -9.66668 -2.47618
ltoes -26.5736
100
root -0.0847451 17.6073 27.4118 3.069 -2.14773 1.89122
lowerback 15.0214 -3.01125 -5.49159
upperback 1.17361 -4.99602 -1.2884
thorax -6.80756 -2.28637 2.73589
lowerneck -7.11526 2.83444 -0.361864
upperneck -7.43399 3.80279 0.383861
head -1.13063 1.90055 0.215564
rclavicle 2.78299e-015 4.21423e-014
rhumerus -54.4679 8.0953 -86.5322
rradius 92.4055
rwrist -5.26106
rhand -37.9832 35.8064
rfingers 7.12502
rthumb -11.023 6.11587
lclavicle 2.78299e-015 4.21423e-014
lhumerus -14.5114 -14.8625 84.5035
lradius 116.169
lwrist 27.8854
lhand -34.0171 4.41001
lfingers 7.12502
lthumb -7.19604 34.2677
rfemur -42.6484 -0.433484 19.1208
rtibia 97.2132
rfoot 7.49606 -6.23337
rtoes 4.3453
lfemur 7.62904 -1.02187 -27.3769
ltibia 29.0225
lfoot -5.85472 -3.59198
ltoes -25.4494
101
root -0.106189 17.7098 27.9797 3.04591 -1.8661 1.49702
lowerback 14.8272 -3.46315 -5.27738
upperback 0.979751 -5.53159 -0.978429
thorax -6.85277 -2.54466 3.04004
lowerneck -6.8517 2.99334 -0.27367
upperneck -7.24909 3.99013 -0.0243434
head -1.10557 1.99423 0.0763343
rclavicle -1.77912e-014 0
rhumerus -55.5804 8.27021 -86.496
rradius 92.8181
rwrist -5.78748
rhand -38.4172 36.4176
rfingers 7.12502
rthumb -11.4416 6.74976
lclavicle -1.77912e-014 0
lhumerus -14.9359 -15.5417 84.6918
lradius 117.171
lwrist 30.092
lhand -35.9265 6.22855
lfingers 7.12502
lthumb -9.03887 36.0149
rfemur -43.0776 0.0782352 19.7448
rtibia 93.6643
rfoot 6.37701 -5.89794
rtoes 2.96907
lfemur 10.2805 -1.07463 -26.633
ltibia 26.6446
lfoot -1.74253 -4.51099
ltoes -25.0567
102
root -0.121678 17.8051 28.5569 2.8951 -1.69879 1.53584
lowerback 14.4771 -3.74182 -5.3992
upperback 1.00549 -5.88614 -0.839596
thorax -6.57346 -2.72421 3.28864
lowerneck -6.99836 3.13165 -0.240682
upperneck -6.97357 4.16162 -0.270518
head -0.99033 2.08023 0.00339191
rclavicle 1.80894e-014 1.59028e-015
rhumerus -56.3805 8.05418 -86.3118
rradius 93.1734
rwrist -6.1113
rhand -38.8525 36.4708
rfingers 7.12502
rthumb -11.8614 6.82678
lclavicle 1.80894e-014 1.59028e-015
lhumerus -15.1464 -17.0514 85.057
lradius 118.386
lwrist 34.608
lhand -37.1724 5.78911
lfingers 7.12502
lthumb -10.241 35.5198
rfemur -43.2248 0.478431 19.7462
rtibia 89.9189
rfoot 5.38133 -5.30342
rtoes 1.60422
lfemur 13.0438 -1.15978 -26.4318
ltibia 24.0511
lfoot 2.86808 -5.03062
ltoes -24.0877
103
root -0.14002 17.8956 29.1257 2.95724 -1.6479 1.37666
lowerback 14.3912 -3.95339 -5.36862
upperback 0.983426 -6.14518 -0.681208
thorax -6.51153 -2.85179 3.47824
lowerneck -8.00842 3.25514 0.0167842
upperneck -6.34 4.29988 -0.481586
head -0.624952 2.14232 -0.0746201
rclavicle 2.41523e-014 9.54166e-015
rhumerus -56.846 7.70108 -86.1284
rradius 93.3369
rwrist -6.49596
rhand -38.3045 36.6245
rfingers 7.12502
rthumb -11.333 6.95073
lclavicle 2.41523e-014 9.54166e-015
lhumerus -15.2116 -18.8155 85.3116
lradius 119.772
lwrist 39.8144
lhand -39.1105 5.00651
lfingers 7.12502
lthumb -12.1102 34.636
rfemur -43.5442 1.04591 19.9832
rtibia 85.9343
rfoot 4.61005 -4.78251
rtoes 0.339329
lfemur 15.5294 -1.50189 -26.0631
ltibia 21.2004
lfoot 8.47052 -4.7147
ltoes -20.4503
104
root -0.15938 17.9728 29.6767 3.32078 -2.15429 0.778531
lowerback 15.2637 -4.03136 -4.86719
upperback 0.0356567 -6.23968 -0.40163
thorax -8.03399 -2.8292 3.64784
lowerneck -8.05156 3.35496 0.137229
upperneck -5.4278 4.42378 -0.592429
head -0.335122 2.20094 -0.113195
rclavicle -3.68746e-014 -1.59028e-015
rhumerus -58.5805 7.67955 -86.1364
rradius 93.5886
rwrist -6.99754
rhand -37.3159 37.1037
rfingers 7.12502
rthumb -10.3794 7.37983
lclavicle -3.68746e-014 -1.59028e-015
lhumerus -16.2771 -18.3989 85.4326
lradius 119.124
lwrist 37.3334
lhand -37.3844 3.58164
lfingers 7.12502
lthumb -10.4455 33.3021
rfemur -44.3272 2.3119 20.6202
rtibia 81.7419
rfoot 4.2191 -4.67559
rtoes 0.39611
lfemur 17.7891 -1.72452 -25.4287
ltibia 17.997
lfoot 14.4229 -3.30556
ltoes -18.6575
105
root -0.157963 18.0168 30.2264 3.69353 -3.29962 0.542466
lowerback 14.8191 -3.84289 -4.69277
upperback -0.375288 -5.94168 -0.251286
thorax -8.25804 -2.67556 3.63523
lowerneck -7.7055 3.43896 0.233071
upperneck -4.97998 4.52787 -0.815538
head -0.245296 2.2511 -0.194343
rclavicle -4.1546e-014 -1.43125e-014
rhumerus -59.8176 7.46779 -85.8574
rradius 93.9374
rwrist -7.46316
rhand -36.4337 37.5826
rfingers 7.12502
rthumb -9.52823 7.81803
lclavicle -4.1546e-014 -1.43125e-014
lhumerus -16.7133 -17.7063 85.3609
lradius 119.173
lwrist 39.3687
lhand -35.8262 2.20938
lfingers 7.12502
lthumb -8.94208 31.9999
rfemur -45.1389 3.6994 20.6532
rtibia 77.5119
rfoot 4.01124 -4.03109
rtoes -0.0933894
lfemur 20.2739 -1.26607 -25.4325
ltibia 14.4816
lfoot 19.9034 -1.33199
ltoes -17.6074
106
root -0.155898 18.0704 30.7997 3.73445 -3.7647 0.467591
lowerback 14.156 -3.85405 -4.52543
upperback -0.401837 -5.89034 -0.198518
thorax -7.92749 -2.67192 3.53154
lowerneck -7.61729 3.52042 0.319688
upperneck -4.6692 4.63155 -0.866147
head -0.160569 2.30127 -0.219247
rclavicle 2.38542e-015 5.96354e-015
rhumerus -60.7727 7.14902 -85.6291
rradius 94.4852
rwrist -7.76081
rhand -35.8927 37.8771
rfingers 7.12502
rthumb -9.00622 8.08938
lclavicle 2.38542e-015 5.96354e-015
lhumerus -17.2527 -18.412 85.6751
lradius 119.404
lwrist 36.8801
lhand -36.0841 5.33567
lfingers 7.12502
lthumb -9.19096 35.1154
rfemur -45.0296 4.3076 20.5399
rtibia 73.0855
rfoot 3.58618 -3.18314
rtoes -0.644885
lfemur 23.4625 -1.46661 -25.5561
ltibia 10.4541
lfoot 24.8734 0.51043
ltoes -16.5037
107
root -0.155536 18.1307 31.3613 3.8991 -4.31803 0.701374
lowerback 12.6118 -3.83556 -5.13735
upperback 0.249527 -5.83869 -0.0505678
thorax -6.287 -2.7028 3.84451
lowerneck -8.11543 3.66471 0.53016
upperneck -4.94715 4.79623 -1.13713
head -0.152806 2.37747 -0.324937
rclavicle -4.94974e-014 -8.34896e-015
rhumerus -60.4027 6.9619 -85.3299
rradius 95.0165
rwrist -8.12766
rhand -36.1695 37.5285
rfingers 7.12502
rthumb -9.27331 7.75241
lclavicle -4.94974e-014 -8.34896e-015
lhumerus -16.5271 -19.4246 85.737
lradius 119.894
lwrist 35.1486
lhand -34.5669 8.80505
lfingers 7.12502
lthumb -7.72677 38.6439
rfemur -44.9655 4.99516 20.0738
rtibia 68.4911
rfoot 3.15191 -2.40399
rtoes -1.98119
lfemur 27.6102 -1.64653 -25.9132
ltibia 3.93673
lfoot 31.0669 2.63223
ltoes -11.1037
